<svg width="30" height="30" viewBox="0 0 30 30" fill="none" xmlns="http://www.w3.org/2000/svg">
<rect x="0.75" y="0.75" width="28.5" height="28.5" stroke="white" stroke-width="1.5"/>
<path d="M19.9946 7.49461C20.1595 7.32975 20.3552 7.19897 20.5706 7.10975C20.786 7.02053 21.0169 6.97461 21.25 6.97461C21.4832 6.97461 21.714 7.02053 21.9294 7.10975C22.1448 7.19897 22.3405 7.32975 22.5054 7.49461C22.6703 7.65947 22.801 7.85518 22.8902 8.07058C22.9795 8.28598 23.0254 8.51684 23.0254 8.74999C23.0254 8.98314 22.9795 9.214 22.8902 9.4294C22.801 9.6448 22.6703 9.84052 22.5054 10.0054L10.5927 21.9181L7.14036 22.8596L8.08189 19.4073L19.9946 7.49461Z" stroke="white" stroke-width="1.5" stroke-linecap="round" stroke-linejoin="round"/>
</svg>
